PathFileType	4	(X/Y/Z)	/Users/itak/Documents/Research/Walk-IL/dataset/trc/00165_00008.trc
DataRate	CameraRate	NumFrames	NumMarkers	Units	OrigDataRate	OrigDataStartFrame	OrigNumFrames
100.000000	100.000000	4	53	mm	100.000000	450	515
Frame#	Time	RPSI			LPSI			L3			STRN			T10			C7			CLAV			RBAK			LBAK			LSHO			LUPA			LAEL			LAOL			LWTS			LWPS			LFRA			LIFD			LHPS			LHTS			RSHO			RUPA			RAEL			RAOL			RWTS			RWPS			RFRA			RIFD			RHTS			RHPS			RBHD			LFHD			RFHD			LBHD			LHIP			RHIP			RASI			LASI			LKNE			LTHI			LANK			LTIP			LTOE			LMT1			LMT5			LHEE			RKNE			RTHI			RANK			RTIP			RTOE			RMT1			RMT5			RHEE			
		X1	Y1	Z1	X2	Y2	Z2	X3	Y3	Z3	X4	Y4	Z4	X5	Y5	Z5	X6	Y6	Z6	X7	Y7	Z7	X8	Y8	Z8	X9	Y9	Z9	X10	Y10	Z10	X11	Y11	Z11	X12	Y12	Z12	X13	Y13	Z13	X14	Y14	Z14	X15	Y15	Z15	X16	Y16	Z16	X17	Y17	Z17	X18	Y18	Z18	X19	Y19	Z19	X20	Y20	Z20	X21	Y21	Z21	X22	Y22	Z22	X23	Y23	Z23	X24	Y24	Z24	X25	Y25	Z25	X26	Y26	Z26	X27	Y27	Z27	X28	Y28	Z28	X29	Y29	Z29	X30	Y30	Z30	X31	Y31	Z31	X32	Y32	Z32	X33	Y33	Z33	X34	Y34	Z34	X35	Y35	Z35	X36	Y36	Z36	X37	Y37	Z37	X38	Y38	Z38	X39	Y39	Z39	X40	Y40	Z40	X41	Y41	Z41	X42	Y42	Z42	X43	Y43	Z43	X44	Y44	Z44	X45	Y45	Z45	X46	Y46	Z46	X47	Y47	Z47	X48	Y48	Z48	X49	Y49	Z49	X50	Y50	Z50	X51	Y51	Z51	X52	Y52	Z52	X53	Y53	Z53	

451	4.5	655.64013671875	1050.876586914062	130.4773254394531	652.3998413085938	1052.7080078125	6.594851970672607	652.9204711914062	1087.945678710938	72.66692352294922	894.6014404296875	1318.87060546875	50.92708587646484	603.8758544921875	1242.5029296875	74.50816345214844	646.8975219726562	1517.208984375	56.47982025146484	855.5404052734375	1429.019409179688	43.04916381835938	606.2881469726562	1338.358642578125	174.1209259033203	633.644775390625	1490.495239257812	-42.18612670898438	704.2222900390625	1483.05126953125	-127.2011566162109	678.6995849609375	1346.916381835938	-196.7802581787109	717.6986694335938	1133.30419921875	-217.6106872558594	689.4938354492188	1110.6064453125	-137.183349609375	877.0022583007812	930.9818725585938	-212.1761932373047	794.955322265625	890.6997680664062	-237.29150390625	749.5341186523438	1026.555786132812	-235.5661010742188	936.5020141601562	753.681640625	-196.4537048339844	831.7928466796875	827.18017578125	-238.5624084472656	900.4007568359375	855.7993774414062	-235.1274719238281	728.8477783203125	1503.807373046875	230.4865875244141	725.016357421875	1438.778564453125	303.578857421875	768.8639526367188	1160.244506835938	386.9716186523438	757.2118530273438	1140.28125	292.2270812988281	978.4306030273438	998.3130493164062	360.4552001953125	921.0988159179688	956.413330078125	413.8527526855469	818.677978515625	1099.913940429688	405.4332580566406	1066.971435546875	832.7789916992188	342.6871643066406	1040.816528320312	924.9281616210938	370.0971984863281	979.8795166015625	891.989990234375	411.1892700195312	725.0359497070312	1699.035278320312	123.0677642822266	862.2216796875	1718.303466796875	-44.11725234985352	891.1683959960938	1728.552612304688	81.24367523193359	686.1198120117188	1696.572875976562	-9.726566314697266	757.3577270507812	1005.431579589844	-120.0609588623047	823.4760131835938	1013.095275878906	246.0717315673828	896.0463256835938	1050.666870117188	186.5272674560547	875.0389404296875	1053.212158203125	-71.23123931884766	860.6266479492188	513.96240234375	-137.4931640625	836.2975463867188	657.9566650390625	-148.8570556640625	737.7301635742188	46.44636154174805	-165.1192321777344	799.4943237304688	289.4881896972656	-164.2672882080078	948.0567626953125	68.98586273193359	-152.8933868408203	907.0330200195312	57.94762802124023	-104.3133010864258	841.724365234375	42.64315795898438	-209.3421783447266	692.463134765625	48.21125793457031	-92.49822998046875	860.6651611328125	513.7201538085938	180.7161712646484	888.5891723632812	783.6823120117188	231.2642211914062	751.3553466796875	37.63521575927734	149.2786865234375	868.1642456054688	392.6896667480469	152.2229766845703	975.3837280273438	38.22628784179688	110.8695526123047	918.1430053710938	39.11235046386719	67.37606811523438	861.3057250976562	31.51707458496094	184.3048400878906	698.1683349609375	42.23527908325195	83.77311706542969	
452	4.51	658.8306884765625	1050.25927734375	129.2216796875	656.0150146484375	1052.094970703125	5.212812900543213	656.3208618164062	1087.281494140625	71.22287750244141	897.5191040039062	1318.688110351562	50.87965774536133	606.8359985351562	1241.60888671875	72.78189849853516	649.2979125976562	1516.453369140625	55.36922073364258	858.2770385742188	1428.765502929688	42.96383285522461	608.5462036132812	1337.345825195312	172.5406799316406	636.6624145507812	1489.802490234375	-43.39063262939453	707.7415771484375	1482.672241210938	-128.0315246582031	682.9636840820312	1346.629638671875	-198.0339813232422	722.5362548828125	1133.149291992188	-219.0222625732422	693.8724365234375	1110.270263671875	-138.8198547363281	881.7064819335938	930.6951904296875	-213.0153961181641	799.806884765625	890.5853881835938	-238.7497406005859	754.4639892578125	1026.450805664062	-237.0100860595703	940.9613647460938	753.37255859375	-197.3070068359375	836.554931640625	827.0230102539062	-239.9235382080078	905.2258911132812	855.6064453125	-236.0326385498047	730.3275146484375	1503.007690429688	229.7949523925781	726.3040771484375	1437.7705078125	302.7544250488281	770.668701171875	1159.011596679688	385.4940795898438	759.6142578125	1139.308349609375	290.7387084960938	981.1566772460938	998.3400268554688	358.2274780273438	924.113037109375	955.8477783203125	411.479248046875	820.77392578125	1098.768676757812	403.741455078125	1070.690063476562	833.4483642578125	339.5751953125	1043.995239257812	925.2977905273438	367.4587707519531	983.2799072265625	891.7772827148438	408.4570007324219	727.9821166992188	1699.205810546875	122.1202087402344	865.04736328125	1716.922729492188	-45.33574295043945	894.1930541992188	1727.660034179688	79.94773864746094	688.8720703125	1696.244750976562	-10.64286804199219	762.1546630859375	1004.507873535156	-120.7573089599609	826.4517822265625	1013.054016113281	245.3948364257812	899.1083374023438	1050.486083984375	186.0322265625	878.94384765625	1052.5732421875	-71.86888885498047	861.5827026367188	513.05517578125	-137.5646820068359	838.3673095703125	656.915283203125	-149.2219848632812	739.4285888671875	45.61506271362305	-165.5997009277344	801.1997680664062	288.656005859375	-164.6473846435547	950.6036987304688	64.27207946777344	-152.6541595458984	908.6939086914062	55.03720092773438	-104.1595306396484	843.6593627929688	40.15966796875	-209.4766845703125	694.0345458984375	48.27078628540039	-93.30222320556641	862.0614013671875	513.4927368164062	180.4654083251953	891.155029296875	783.4522705078125	230.9048461914062	751.3185424804688	37.67089080810547	149.2189483642578	869.173583984375	392.4741821289062	151.959716796875	975.3866577148438	38.2277946472168	110.8659820556641	918.1341552734375	39.09175872802734	67.38732147216797	861.2921142578125	31.5222225189209	184.3160858154297	698.12939453125	42.20643997192383	83.67216491699219	
453	4.52	662.0639038085938	1049.579223632812	127.948600769043	659.5411376953125	1051.426025390625	3.802232980728149	659.6819458007812	1086.56494140625	69.74688720703125	900.3645629882812	1318.44970703125	50.76469421386719	609.7386474609375	1240.6826171875	70.98892211914062	651.646240234375	1515.666625976562	54.18510818481445	860.9434204101562	1428.460571289062	42.82659149169922	610.7089233398438	1336.285888671875	170.8625793457031	639.6331787109375	1489.067138671875	-44.66950988769531	711.2199096679688	1482.252807617188	-128.9305114746094	687.1824340820312	1346.302978515625	-199.34765625	727.288818359375	1132.958984375	-220.4729309082031	698.1516723632812	1109.892456054688	-140.5005493164062	886.2687377929688	930.3169555664062	-213.8610076904297	804.5082397460938	890.4190063476562	-240.2338562011719	759.2880859375	1026.290649414062	-238.481689453125	945.221923828125	752.9649047851562	-198.1683959960938	841.1681518554688	826.7994995117188	-241.305908203125	909.8951416015625	855.3223266601562	-236.9453277587891	731.7108154296875	1502.14111328125	229.0340881347656	727.4461669921875	1436.685302734375	301.8470458984375	772.1279907226562	1157.653930664062	383.8741149902344	761.7077026367188	1138.244384765625	289.0881042480469	983.4644165039062	998.1337890625	355.9673767089844	926.6473388671875	955.0675048828125	409.0137023925781	822.4785766601562	1097.463256835938	401.9266967773438	1073.890014648438	833.846923828125	336.4278564453125	1046.697998046875	925.3975830078125	364.8030700683594	986.1617431640625	891.3193969726562	405.6489562988281	730.8084106445312	1699.2998046875	121.1199340820312	867.8072509765625	1715.531494140625	-46.53880310058594	897.1124877929688	1726.734985351562	78.67538452148438	691.557861328125	1695.875854492188	-11.61758518218994	766.8140258789062	1003.470275878906	-121.494010925293	829.3812866210938	1013.042114257812	244.6044616699219	902.1661376953125	1050.290283203125	185.4011688232422	882.74658203125	1051.87646484375	-72.67407989501953	862.0990600585938	512.0673828125	-137.6541290283203	839.98486328125	655.802734375	-149.6489410400391	740.6611328125	44.7843017578125	-165.8727416992188	802.392822265625	287.7392578125	-164.9364624023438	952.89404296875	59.51341247558594	-152.8845520019531	910.162353515625	52.36685562133789	-104.3015518188477	845.0547485351562	37.81156158447266	-209.7704315185547	695.3590087890625	48.17511367797852	-93.76558685302734	863.4180297851562	513.2855834960938	180.1974792480469	893.7031860351562	783.2424926757812	230.4781188964844	751.2835083007812	37.70317840576172	149.1716003417969	870.1281127929688	392.2729187011719	151.6770477294922	975.3861083984375	38.23177719116211	110.8620300292969	918.1235961914062	39.0721321105957	67.39777374267578	861.2778930664062	31.5267219543457	184.3292236328125	698.0902099609375	42.17558288574219	83.58979034423828	
454	4.53	665.3484497070312	1048.836791992188	126.6468887329102	662.981201171875	1050.708862304688	2.365821838378906	662.9910888671875	1085.802001953125	68.24465942382812	903.1378784179688	1318.156616210938	50.57250213623047	612.5812377929688	1239.735107421875	69.14128112792969	653.9517822265625	1514.86083984375	52.93496704101562	863.5443725585938	1428.106201171875	42.62668991088867	612.7806396484375	1335.187744140625	169.09521484375	642.5558471679688	1488.297485351562	-46.01374435424805	714.6487426757812	1481.795288085938	-129.8983306884766	691.3387451171875	1345.932006835938	-200.70849609375	731.95751953125	1132.729736328125	-221.9575805664062	702.3290405273438	1109.470581054688	-142.2257080078125	890.6922607421875	929.853515625	-214.7159423828125	809.0641479492188	890.2039184570312	-241.7415008544922	764.0097045898438	1026.077880859375	-239.9764099121094	949.29150390625	752.4708862304688	-199.0410614013672	845.638671875	826.5120849609375	-242.7103424072266	914.4088745117188	854.9514770507812	-237.8679809570312	733.0240478515625	1501.211303710938	228.2102203369141	728.4669189453125	1435.527099609375	300.8578796386719	773.2604370117188	1156.175903320312	382.1189270019531	763.46923828125	1137.09814453125	287.2778625488281	985.362548828125	997.6846923828125	353.6864624023438	928.7086791992188	954.0682983398438	406.4700012207031	823.8055419921875	1096.000244140625	399.9960021972656	1076.572631835938	833.958251953125	333.2626953125	1048.928466796875	925.2136840820312	362.1439514160156	988.5316162109375	890.6072998046875	402.7800903320312	733.5192260742188	1699.320190429688	120.0669860839844	870.5082397460938	1714.14501953125	-47.724365234375	899.929931640625	1725.789794921875	77.42903900146484	694.1844482421875	1695.470703125	-12.64913940429688	771.2438354492188	1002.355407714844	-122.3074493408203	832.276123046875	1013.053649902344	243.7041778564453	905.2263793945312	1050.082885742188	184.6376800537109	886.4549560546875	1051.14453125	-73.64518737792969	862.1805419921875	511.0278930664062	-137.7550964355469	841.1441650390625	654.6452026367188	-150.1297607421875	741.5206909179688	43.96699523925781	-165.9810180664062	803.0975952148438	286.7588806152344	-165.1337127685547	954.967529296875	54.99671936035156	-153.5581207275391	911.518310546875	50.12235641479492	-104.7278671264648	846.0181274414062	35.71770477294922	-210.2471160888672	696.5048828125	47.85714340209961	-93.92440795898438	864.712890625	513.1017456054688	179.9176940917969	896.23193359375	783.0515747070312	229.9791259765625	751.2492065429688	37.73067474365234	149.1363677978516	871.012451171875	392.0889892578125	151.3898620605469	975.38134765625	38.23881530761719	110.8581466674805	918.1104125976562	39.05371856689453	67.40800476074219	861.26318359375	31.5308837890625	184.3440093994141	698.0508422851562	42.14366912841797	83.52645111083984	
